<mxfile host="Electron" agent="Mozilla/5.0 (Windows NT 10.0; Win64; x64) AppleWebKit/537.36 (KHTML, like Gecko) draw.io/24.7.17 Chrome/128.0.6613.36 Electron/32.0.1 Safari/537.36" version="24.7.17">
  <diagram name="Page-1" id="w8nOpF2oB80g59Bv6xfn">
    <mxGraphModel dx="1017" dy="1596" grid="1" gridSize="10" guides="1" tooltips="1" connect="1" arrows="1" fold="1" page="1" pageScale="1" pageWidth="850" pageHeight="1100" math="0" shadow="0">
      <root>
        <mxCell id="0" />
        <mxCell id="1" parent="0" />
        <mxCell id="QeXeqaZ-3VHrsMZZlII8-31" value="" style="rounded=1;whiteSpace=wrap;html=1;" vertex="1" parent="1">
          <mxGeometry x="20" y="-312.48" width="80" height="40" as="geometry" />
        </mxCell>
        <mxCell id="WguVO1PVhgAHjZ4VN-y--3" value="Hub Agent" style="rounded=1;whiteSpace=wrap;html=1;fillColor=#f8cecc;strokeColor=#b85450;sketch=1;curveFitting=1;jiggle=2;" parent="1" vertex="1">
          <mxGeometry x="390" y="-430" width="120" height="60" as="geometry" />
        </mxCell>
        <mxCell id="WguVO1PVhgAHjZ4VN-y--4" value="Actor" style="shape=umlActor;verticalLabelPosition=bottom;verticalAlign=top;html=1;outlineConnect=0;shadow=1;sketch=1;curveFitting=1;jiggle=2;" parent="1" vertex="1">
          <mxGeometry x="540" y="-150" width="30" height="60" as="geometry" />
        </mxCell>
        <mxCell id="QeXeqaZ-3VHrsMZZlII8-1" value="" style="endArrow=classic;html=1;rounded=0;flowAnimation=1;shadow=1;" edge="1" parent="1">
          <mxGeometry width="50" height="50" relative="1" as="geometry">
            <mxPoint x="170" y="-390" as="sourcePoint" />
            <mxPoint x="380" y="-390" as="targetPoint" />
          </mxGeometry>
        </mxCell>
        <mxCell id="QeXeqaZ-3VHrsMZZlII8-10" value="&lt;font color=&quot;#ff2b80&quot;&gt;Proactive Identification&lt;/font&gt;" style="rounded=1;whiteSpace=wrap;html=1;strokeWidth=2;fillWeight=4;hachureGap=8;hachureAngle=45;fillColor=#f5f5f5;sketch=1;fontColor=#333333;strokeColor=#666666;" vertex="1" parent="1">
          <mxGeometry x="80" y="-580" width="570" height="60" as="geometry" />
        </mxCell>
        <mxCell id="QeXeqaZ-3VHrsMZZlII8-14" value="Monitoring Agent" style="rounded=1;whiteSpace=wrap;html=1;fillColor=#dae8fc;strokeColor=#6c8ebf;sketch=1;curveFitting=1;jiggle=2;" vertex="1" parent="1">
          <mxGeometry x="50" y="-420" width="120" height="60" as="geometry" />
        </mxCell>
        <mxCell id="QeXeqaZ-3VHrsMZZlII8-15" value="Shipping Agent" style="rounded=1;whiteSpace=wrap;html=1;fillColor=#d5e8d4;strokeColor=#82b366;sketch=1;curveFitting=1;jiggle=2;" vertex="1" parent="1">
          <mxGeometry x="50" y="-260" width="120" height="60" as="geometry" />
        </mxCell>
        <mxCell id="QeXeqaZ-3VHrsMZZlII8-22" style="edgeStyle=orthogonalEdgeStyle;rounded=0;orthogonalLoop=1;jettySize=auto;html=1;exitX=0.167;exitY=0;exitDx=0;exitDy=0;entryX=0.5;entryY=1;entryDx=0;entryDy=0;flowAnimation=1;exitPerimeter=0;" edge="1" parent="1" source="QeXeqaZ-3VHrsMZZlII8-16" target="QeXeqaZ-3VHrsMZZlII8-14">
          <mxGeometry relative="1" as="geometry" />
        </mxCell>
        <mxCell id="QeXeqaZ-3VHrsMZZlII8-16" value="Customer Agent" style="rounded=1;whiteSpace=wrap;html=1;fillColor=#e1d5e7;strokeColor=#9673a6;sketch=1;curveFitting=1;jiggle=2;" vertex="1" parent="1">
          <mxGeometry x="400" y="-270" width="120" height="60" as="geometry" />
        </mxCell>
        <mxCell id="QeXeqaZ-3VHrsMZZlII8-17" value="" style="endArrow=classic;html=1;rounded=0;exitX=0.575;exitY=1.05;exitDx=0;exitDy=0;exitPerimeter=0;flowAnimation=1;" edge="1" parent="1" source="WguVO1PVhgAHjZ4VN-y--3" target="QeXeqaZ-3VHrsMZZlII8-16">
          <mxGeometry width="50" height="50" relative="1" as="geometry">
            <mxPoint x="280" y="-320" as="sourcePoint" />
            <mxPoint x="330" y="-370" as="targetPoint" />
            <Array as="points" />
          </mxGeometry>
        </mxCell>
        <mxCell id="QeXeqaZ-3VHrsMZZlII8-21" style="edgeStyle=orthogonalEdgeStyle;rounded=0;orthogonalLoop=1;jettySize=auto;html=1;flowAnimation=1;" edge="1" parent="1" source="QeXeqaZ-3VHrsMZZlII8-15">
          <mxGeometry relative="1" as="geometry">
            <mxPoint x="400" y="-230" as="targetPoint" />
            <Array as="points">
              <mxPoint x="330" y="-230" />
              <mxPoint x="330" y="-230" />
            </Array>
          </mxGeometry>
        </mxCell>
        <mxCell id="QeXeqaZ-3VHrsMZZlII8-23" value="" style="sketch=0;aspect=fixed;pointerEvents=1;shadow=0;dashed=0;html=1;strokeColor=none;labelPosition=center;verticalLabelPosition=bottom;verticalAlign=top;align=center;fillColor=#00188D;shape=mxgraph.mscae.enterprise.tool;" vertex="1" parent="1">
          <mxGeometry x="20" y="-304.95" width="27.72" height="24.95" as="geometry" />
        </mxCell>
        <mxCell id="QeXeqaZ-3VHrsMZZlII8-24" value="" style="html=1;verticalLabelPosition=bottom;align=center;labelBackgroundColor=#ffffff;verticalAlign=top;strokeWidth=2;strokeColor=#0080F0;shadow=0;dashed=0;shape=mxgraph.ios7.icons.data;" vertex="1" parent="1">
          <mxGeometry x="60" y="-300.1" width="22" height="20.1" as="geometry" />
        </mxCell>
        <mxCell id="QeXeqaZ-3VHrsMZZlII8-30" value="" style="endArrow=block;startArrow=block;endFill=1;startFill=1;html=1;rounded=0;exitX=0.108;exitY=1.05;exitDx=0;exitDy=0;exitPerimeter=0;flowAnimation=1;" edge="1" parent="1" source="QeXeqaZ-3VHrsMZZlII8-14">
          <mxGeometry width="160" relative="1" as="geometry">
            <mxPoint x="-10" y="-350" as="sourcePoint" />
            <mxPoint x="63" y="-320" as="targetPoint" />
          </mxGeometry>
        </mxCell>
        <mxCell id="QeXeqaZ-3VHrsMZZlII8-45" value="" style="sketch=0;aspect=fixed;pointerEvents=1;shadow=0;dashed=0;html=1;strokeColor=none;labelPosition=center;verticalLabelPosition=bottom;verticalAlign=top;align=center;fillColor=#00188D;shape=mxgraph.mscae.enterprise.tool;" vertex="1" parent="1">
          <mxGeometry x="530" y="-190" width="27.72" height="24.95" as="geometry" />
        </mxCell>
        <mxCell id="QeXeqaZ-3VHrsMZZlII8-47" value="" style="shape=message;html=1;html=1;outlineConnect=0;labelPosition=center;verticalLabelPosition=bottom;align=center;verticalAlign=top;" vertex="1" parent="1">
          <mxGeometry x="450" y="-165.05" width="40" height="20" as="geometry" />
        </mxCell>
      </root>
    </mxGraphModel>
  </diagram>
</mxfile>
